<?xml version="1.0" encoding="utf-8"?>
<!-- Generator: Adobe Illustrator 24.1.3, SVG Export Plug-In . SVG Version: 6.00 Build 0)  -->
<svg version="1.1" id="Layer_1" xmlns="http://www.w3.org/2000/svg" xmlns:xlink="http://www.w3.org/1999/xlink" x="0px" y="0px"
	 viewBox="0 0 181.4 81.3" style="enable-background:new 0 0 181.4 81.3;" xml:space="preserve">
<style type="text/css">
	.st0{fill:#95C53E;}
</style>
<g>
	<g>
		<path class="st0" d="M157.7,61.7l-3-13.7c-0.2-0.8-0.4-2-0.8-3.6s-0.8-3.3-1.2-5.2s-0.8-3.5-1.2-5.1c-0.4-1.6-0.6-2.7-0.8-3.4
			h-0.3c-0.2,0.7-0.4,1.9-0.8,3.4c-0.4,1.6-0.7,3.3-1.2,5.1c-0.4,1.9-0.8,3.6-1.2,5.2s-0.7,2.9-0.8,3.7l-3.2,13.6h-11.5l-11.2-39.3
			h10.7l4.5,17.4c0.3,1.2,0.6,2.7,0.9,4.3s0.5,3.3,0.8,4.9s0.4,2.8,0.5,3.7h0.3c0-0.7,0.1-1.6,0.3-2.7s0.3-2.3,0.5-3.5
			s0.4-2.3,0.6-3.3s0.3-1.6,0.4-2l4.9-18.8h11.8l4.6,18.8c0.2,0.7,0.4,1.8,0.7,3.2s0.5,3,0.7,4.6s0.3,2.8,0.4,3.7h0.3
			c0.1-0.8,0.3-2,0.5-3.6s0.5-3.2,0.8-4.9s0.6-3.2,1-4.4l4.7-17.4h10.5l-11.3,39.3H157.7z"/>
	</g>
</g>
<g>
	<path class="st0" d="M37.9,61.7l-3-13.7c-0.2-0.8-0.4-2-0.8-3.6c-0.4-1.6-0.8-3.3-1.2-5.2c-0.4-1.8-0.8-3.5-1.2-5.1
		c-0.4-1.6-0.6-2.7-0.8-3.4h-0.3c-0.2,0.7-0.4,1.9-0.8,3.4c-0.4,1.6-0.7,3.3-1.2,5.1c-0.4,1.9-0.8,3.6-1.2,5.2
		c-0.4,1.6-0.7,2.9-0.8,3.7l-3.2,13.6H11.9L0.7,22.4h10.7l4.5,17.4c0.3,1.2,0.6,2.7,0.9,4.3s0.5,3.3,0.8,4.9
		c0.2,1.6,0.4,2.8,0.5,3.7h0.3c0-0.7,0.1-1.6,0.3-2.7c0.2-1.1,0.3-2.3,0.5-3.5c0.2-1.2,0.4-2.3,0.6-3.3s0.3-1.6,0.4-2L25,22.4h11.8
		l4.6,18.8c0.2,0.7,0.4,1.8,0.7,3.2c0.3,1.5,0.5,3,0.7,4.6s0.3,2.8,0.4,3.7h0.3c0.1-0.8,0.3-2,0.5-3.6c0.2-1.6,0.5-3.2,0.8-4.9
		s0.6-3.2,1-4.4l4.7-17.4h10.5L49.6,61.7H37.9z"/>
</g>
<g>
	<g>
		<g>
			<path class="st0" d="M90.6,36.6c-0.4-0.1-0.9-0.2-1.4-0.2c-2.9,0-5.2,2.3-5.2,5.2s2.3,5.2,5.2,5.2s5.2-2.3,5.2-5.2
				c0-0.5-0.1-1-0.2-1.4l14.6-14.6l2.4,0.3l7.4-7.4l-5.6-0.7l-0.7-5.6l-7.4,7.4l0.3,2.4L90.6,36.6z"/>
			<path class="st0" d="M89.7,31.6l4.3-4.3c-5.3-1.8-11.4-0.6-15.6,3.6c-5.9,5.9-5.9,15.5,0,21.5s15.5,5.9,21.5,0
				c4.2-4.2,5.4-10.3,3.6-15.6l-4.3,4.3c0.2,2.8-0.8,5.6-2.9,7.7c-3.9,3.9-10.3,3.9-14.2,0s-3.9-10.3,0-14.2
				C84.2,32.4,87,31.5,89.7,31.6z"/>
			<path class="st0" d="M107.3,33.1c3.5,7.4,2.2,16.6-3.9,22.7c-7.8,7.8-20.5,7.8-28.3,0s-7.8-20.5,0-28.3
				c6.2-6.2,15.3-7.5,22.7-3.9l4.1-4.1c-9.8-5.6-22.5-4.2-30.8,4.1c-10,10-10,26.2,0,36.2c10,10,26.2,10,36.2,0
				c8.3-8.3,9.7-21,4.1-30.8L107.3,33.1z"/>
		</g>
	</g>
</g>
</svg>
