<?xml version="1.0" encoding="utf-8"?>
<!-- Generator: Adobe Illustrator 24.1.3, SVG Export Plug-In . SVG Version: 6.00 Build 0)  -->
<svg version="1.1" id="Layer_1" xmlns="http://www.w3.org/2000/svg" xmlns:xlink="http://www.w3.org/1999/xlink" x="0px" y="0px"
	 viewBox="0 0 945.72 191.05" style="enable-background:new 0 0 945.72 191.05;" xml:space="preserve">
<style type="text/css">
	.st0{fill:#4374BA;}
	.st1{fill:#F7EC13;}
	.st2{fill:#F16D24;}
	.st3{enable-background:new    ;}
	.st4{fill:#FFFFFF;}
</style>
<g>
	<path class="st0" d="M145.23,190.33c-31.44-1.12-58.45-12.78-81.86-33.66c-10.33-9.21-19.06-19.66-27.18-30.75
		c-1.14-1.56-1.46-2.47,0.34-3.79c13.64-10.02,28.67-16.54,45.56-18.53c1.84-0.22,2.76,0.18,3.3,2.28
		c6.45,25.09,21.25,44.37,42.49,58.58c15.72,10.52,33.51,15.91,52.29,17.99c2.08,0.23,4.16,0.52,6.24,1.09
		c-9.91,3.92-20.21,5.65-30.69,6.6c-1.46,0.13-3.21-0.73-4.39,0.91c-0.58,0-1.16,0-1.74,0C148.27,190.03,146.6,191.07,145.23,190.33
		z"/>
	<path class="st1" d="M0,138.27c2.8-11.21,6.49-21.56,11.93-31.27c19.05-33.98,49.22-52.49,86-61.8c9.24-2.34,18.64-3.67,28.14-4.43
		c2.56-0.21,3.31,0.59,3.71,3.22c2.49,16.43,0.2,32.15-6.22,47.4c-0.9,2.14-1.74,3.11-4.34,2.36c-28.7-8.29-55.3-2.61-80.38,12.48
		c-12.35,7.43-23.19,16.72-32.9,27.35c-1.36,1.49-2.8,2.92-4.23,4.34C1.55,138.08,1.19,138.04,0,138.27z"/>
	<path class="st2" d="M133.82,0c3.72,2.47,6.61,5.83,9.41,9.15c23.97,28.43,34.83,61.16,31.35,98.29
		c-1.7,18.1-6.94,35.33-14.49,51.88c-0.84,1.85-1.54,1.95-3.18,1.29c-15.83-6.34-29.75-15.2-39.71-29.47c-1.3-1.87-1.38-3,0.35-4.71
		c22.67-22.37,28.59-50.24,26.26-80.75c-1.14-14.93-5.16-29.21-10.06-43.28C133.51,1.74,133.01,1.12,133.82,0z"/>
</g>
<g class="st3">
	<path class="st4" d="M240.54,141.17c-6.78-1.13-11.72-4.07-14.82-8.83c-3.11-4.76-4.66-10.41-4.66-16.94
		c0-4.76,0.77-9.74,2.3-14.94c1.53-5.2,3.73-10.3,6.59-15.31c2.86-5,6.31-9.66,10.35-13.98c4.03-4.31,8.59-8,13.67-11.07
		c5.08-3.06,10.61-5.2,16.58-6.41c3.63-0.73,7.1-1.09,10.41-1.09c6.45,0,11.62,1.27,15.49,3.81s5.81,5.79,5.81,9.74
		c0,0.81-0.06,1.59-0.18,2.36c-0.12,0.77-0.38,1.59-0.79,2.48c-0.89,2.34-2.36,4.42-4.42,6.23c-2.06,1.82-4.4,3.21-7.02,4.17
		c-2.62,0.97-5.31,1.37-8.05,1.21c-1.29-0.16-2.4-0.62-3.33-1.39c-0.93-0.77-1.39-1.71-1.39-2.84c0-1.13,0.48-2.34,1.45-3.63
		c0.89,0.32,1.89,0.48,3.02,0.48c2.02,0,3.99-0.48,5.93-1.45c1.94-0.97,3.55-2.3,4.84-3.99c1.29-1.69,1.94-3.59,1.94-5.69
		c0-2.82-0.97-4.7-2.9-5.63c-1.94-0.93-4.11-1.39-6.53-1.39c-1.62,0-3.21,0.14-4.78,0.42c-1.57,0.28-2.84,0.54-3.81,0.79
		c-4.6,1.21-9.3,3.41-14.1,6.59c-4.8,3.19-9.18,7.06-13.13,11.62c-3.95,4.56-7.02,9.54-9.2,14.94c-1.61,3.95-2.86,7.95-3.75,11.98
		c-0.89,4.03-1.33,7.86-1.33,11.5c0,4.68,0.79,8.79,2.36,12.34c1.57,3.55,4.09,6.01,7.56,7.38c3.15,1.21,6.37,1.81,9.68,1.81
		c5.32,0,10.71-1.29,16.15-3.87c5.45-2.58,10.47-5.85,15.06-9.8c2.82-2.5,5.36-5.08,7.62-7.74c2.26-2.66,3.99-5.48,5.2-8.47
		c1.53,0.97,2.3,2.38,2.3,4.24c0,1.45-0.42,3.02-1.27,4.72s-1.82,3.27-2.9,4.72s-2.04,2.58-2.84,3.39
		c-5.65,5.89-12.4,10.41-20.27,13.55c-7.87,3.15-15.83,4.72-23.9,4.72C246.43,141.9,243.45,141.66,240.54,141.17z"/>
	<path class="st4" d="M314.84,139.24c-3.71,0-6.92-1.17-9.62-3.51c-2.7-2.34-4.05-6.09-4.05-11.25c0-3.79,0.68-7.74,2.06-11.86
		c1.37-4.11,3.33-7.94,5.87-11.5c2.54-3.55,5.63-6.45,9.26-8.71c3.63-2.26,7.7-3.39,12.22-3.39c3.71,0,6.59,0.71,8.65,2.12
		c2.06,1.41,3.53,3.29,4.42,5.63c0.89,2.34,1.33,4.84,1.33,7.5c0,2.02-0.22,4.05-0.67,6.11c-0.44,2.06-1.07,4.1-1.88,6.11
		c1.37,1.62,3.1,2.42,5.2,2.42c2.26,0,4.36-0.85,6.29-2.54c1.13-0.97,2.16-2.2,3.09-3.69c0.93-1.49,1.75-2.88,2.48-4.17
		c0.24-0.48,0.52-0.73,0.85-0.73c0.4,0,0.6,0.57,0.6,1.69c0,0.73-0.1,1.57-0.3,2.54c-0.2,0.97-0.63,1.94-1.27,2.9
		c-1.21,2.1-2.46,3.69-3.75,4.78c-1.29,1.09-2.74,1.96-4.36,2.6c-1.21,0.48-2.5,0.73-3.87,0.73c-2.5,0-4.76-0.77-6.78-2.3
		c-0.65,1.37-1.45,2.78-2.42,4.24c-2.34,3.95-5.37,7.32-9.08,10.1C325.4,137.85,320.64,139.24,314.84,139.24z M319.43,134.64
		c1.86,0,3.65-0.62,5.38-1.88c1.73-1.25,3.33-2.8,4.78-4.66c1.45-1.85,2.72-3.79,3.81-5.81c1.09-2.02,2-3.79,2.72-5.32
		c-2.74-2.34-4.11-5.28-4.11-8.83c0-2.34,0.65-4.15,1.94-5.45c1.29-1.29,3.06-1.85,5.32-1.69c-0.08-1.86-0.57-3.39-1.45-4.6
		c-0.89-1.21-2.34-1.81-4.36-1.81c-1.86,0-3.61,0.57-5.26,1.69c-1.65,1.13-3.19,2.56-4.6,4.3c-1.41,1.74-2.66,3.51-3.75,5.32
		c-1.09,1.81-2,3.45-2.72,4.9c-1.05,2.1-2.02,4.64-2.9,7.62c-0.89,2.99-1.33,5.77-1.33,8.35c0,2.26,0.46,4.13,1.39,5.63
		C315.22,133.89,316.93,134.64,319.43,134.64z"/>
	<path class="st4" d="M415.26,139c-2.74,0-4.62-0.83-5.63-2.48c-1.01-1.65-1.51-3.57-1.51-5.75c0-2.34,0.38-5.06,1.15-8.17
		c0.77-3.1,1.73-6.33,2.9-9.68c1.17-3.35,2.36-6.47,3.57-9.38c0.4-0.97,0.79-2.02,1.15-3.15c0.36-1.13,0.54-2.14,0.54-3.03
		c0-1.61-0.73-2.42-2.18-2.42c-0.57,0-1.21,0.1-1.94,0.3c-0.73,0.2-1.57,0.59-2.54,1.15c-1.69,0.81-3.31,1.92-4.84,3.33
		c-1.53,1.41-2.62,2.48-3.27,3.21c-3.07,3.95-5.38,8.23-6.96,12.83c-1.57,4.6-3.21,9.28-4.9,14.04c-0.48,1.37-0.97,2.78-1.45,4.23
		c-0.48,1.45-0.93,2.86-1.33,4.24h-11.86c1.37-3.87,2.76-7.72,4.17-11.56c1.41-3.83,2.84-7.64,4.29-11.43
		c0.89-2.18,1.69-4.29,2.42-6.35c0.73-2.06,1.37-3.97,1.94-5.75c0.32-0.89,0.6-1.82,0.85-2.78s0.36-1.85,0.36-2.66
		c0-1.85-0.81-2.78-2.42-2.78c-0.57,0-1.23,0.1-2,0.3c-0.77,0.2-1.67,0.59-2.72,1.15c-1.69,0.81-3.31,1.92-4.84,3.33
		c-1.53,1.41-2.58,2.48-3.15,3.21c-1.05,1.29-2.06,2.72-3.03,4.3c-0.97,1.57-1.81,3.17-2.54,4.78c-1.61,3.47-2.88,6.76-3.81,9.86
		c-0.93,3.11-1.8,5.75-2.6,7.93c-0.48,1.37-0.97,2.78-1.45,4.23c-0.48,1.45-0.93,2.86-1.33,4.24h-11.74c1.13-4.03,2.1-7.06,2.9-9.08
		l7.86-20.09c0.24-0.64,0.62-1.71,1.15-3.21c0.52-1.49,1.07-3.15,1.63-4.96c0.56-1.82,1.05-3.59,1.45-5.32
		c0.4-1.73,0.6-3.17,0.6-4.3c0-0.73-0.08-1.21-0.24-1.45c0.73,0,1.55-0.02,2.48-0.06c0.93-0.04,1.79-0.06,2.6-0.06
		c1.13,0,2.2,0.04,3.21,0.12c1.01,0.08,1.67,0.28,2,0.61c0.89,0.65,1.33,1.61,1.33,2.9c0,1.05-0.2,2.08-0.6,3.08
		c-0.4,1.01-0.69,1.84-0.85,2.48c1.13-1.05,2.38-2.06,3.75-3.02c1.37-0.97,3.35-2.22,5.93-3.75c1.61-0.89,3.51-1.61,5.69-2.18
		c2.18-0.56,4.15-0.85,5.93-0.85c4.27,0,6.41,1.78,6.41,5.32c0,1.45-0.44,3.39-1.33,5.81c1.69-1.69,3.45-3.17,5.26-4.42
		c1.81-1.25,3.73-2.48,5.75-3.69c1.61-0.89,3.51-1.61,5.69-2.18c2.18-0.56,4.15-0.85,5.93-0.85c4.27,0,6.41,1.82,6.41,5.45
		c0,0.81-0.14,1.74-0.42,2.78c-0.28,1.05-0.67,2.22-1.15,3.51c-0.48,1.29-1.17,3.05-2.06,5.26c-0.89,2.22-1.8,4.56-2.72,7.02
		c-0.93,2.46-1.69,4.8-2.3,7.02c-0.61,2.22-0.91,4.05-0.91,5.51c0,0.89,0.14,1.67,0.42,2.36c0.28,0.69,0.83,1.03,1.63,1.03
		c0.56,0,1.37-0.28,2.42-0.85c1.45-0.89,2.9-2.06,4.36-3.51s2.42-2.5,2.9-3.15c1.61-2.1,3.15-4.33,4.6-6.71
		c1.45-2.38,2.7-4.58,3.75-6.59c0.4-0.64,0.68-0.97,0.85-0.97c0.48,0,0.73,0.69,0.73,2.06c0,0.65-0.1,1.39-0.3,2.24
		c-0.2,0.85-0.5,1.63-0.91,2.36c-1.13,1.94-2.46,4.07-3.99,6.41c-1.53,2.34-3.11,4.6-4.72,6.78c-1.13,1.53-2.62,3.23-4.48,5.08
		c-1.86,1.86-3.83,3.45-5.93,4.78C419.22,138.33,417.2,139,415.26,139z"/>
	<path class="st4" d="M416.96,168.28c0.4-0.57,0.93-1.55,1.57-2.96c0.65-1.41,1.33-2.92,2.06-4.54c0.73-1.61,1.33-2.99,1.82-4.11
		c1.37-3.39,2.95-7.52,4.72-12.4c1.78-4.88,3.59-9.98,5.45-15.31c1.85-5.32,3.63-10.41,5.32-15.25c1.69-4.84,3.19-8.83,4.48-11.98
		c1.21-2.9,2.26-5.22,3.15-6.96c0.89-1.73,2.16-2.98,3.81-3.75c1.65-0.77,4.17-1.15,7.56-1.15h3.63c-1.13,0.81-2.6,2.64-4.42,5.51
		c-1.82,2.86-3.53,5.87-5.14,9.01c0.56-0.73,1.09-1.43,1.57-2.12c0.48-0.68,1.01-1.31,1.57-1.88c2.58-3.15,5.32-5.77,8.23-7.87
		c2.9-2.1,5.73-3.15,8.47-3.15c2.26,0,4.17,0.85,5.75,2.54c1.57,1.69,2.36,4.56,2.36,8.59c0,3.71-0.71,7.44-2.12,11.19
		c-1.41,3.75-3.29,7.3-5.63,10.65c-2.34,3.35-4.92,6.31-7.74,8.89c-0.57,0.56-1.19,1.11-1.88,1.63c-0.69,0.53-1.39,1.03-2.12,1.51
		c2.58,0.24,5.14-0.36,7.68-1.81c2.54-1.45,4.88-3.23,7.02-5.32c2.14-2.1,3.89-3.99,5.26-5.69c1.61-2.1,3.25-4.52,4.9-7.26
		c1.65-2.74,3-5.16,4.05-7.26c0.32-0.56,0.61-0.85,0.85-0.85c0.64,0,0.97,0.73,0.97,2.18c0,1.29-0.4,2.62-1.21,3.99
		c-0.65,1.21-1.53,2.74-2.66,4.6c-1.13,1.86-2.14,3.47-3.03,4.84c-3.71,5.41-8.03,9.84-12.95,13.31c-4.92,3.47-10.85,5.2-17.79,5.2
		c-0.57,0-1.15,0-1.75,0c-0.6,0-1.23-0.04-1.88-0.12c-1.94-0.16-3.75-0.63-5.45-1.39c-1.69-0.77-2.82-2.2-3.39-4.3l-6.78,21.17
		c-0.89,2.82-1.71,5.16-2.48,7.02c-0.77,1.85-1.73,3.25-2.9,4.17c-1.17,0.93-2.88,1.39-5.14,1.39H416.96z M446.12,135.12
		c1.37,0,2.94-0.71,4.72-2.12c1.77-1.41,3.53-3.19,5.26-5.32c1.73-2.14,3.21-4.21,4.42-6.23c1.86-3.22,3.43-6.53,4.72-9.92
		c1.29-3.39,1.94-6.17,1.94-8.35c0-2.42-0.97-3.63-2.9-3.63c-1.69,0-3.55,0.81-5.57,2.42c-1.45,1.13-3.09,2.78-4.9,4.96
		c-1.82,2.18-3.59,4.62-5.32,7.32c-1.74,2.7-3.15,5.45-4.24,8.23c-1.09,2.78-1.63,5.3-1.63,7.56c0,0.4,0.02,0.79,0.06,1.15
		c0.04,0.36,0.1,0.75,0.18,1.15C443.25,134.2,444.34,135.12,446.12,135.12z"/>
	<path class="st4" d="M520.41,139c-2.5,0-4.22-0.97-5.14-2.9c-0.93-1.94-1.39-4.31-1.39-7.14c0-2.58,0.24-5.12,0.73-7.62
		c0.24-1.13,0.5-2.28,0.79-3.45c0.28-1.17,0.62-2.4,1.03-3.69c-1.37,2.5-2.8,4.92-4.29,7.26c-1.49,2.34-3.01,4.4-4.54,6.17
		c-2.58,3.15-5.3,5.77-8.17,7.87c-2.86,2.1-5.71,3.15-8.53,3.15c-2.26,0-4.17-0.83-5.75-2.48c-1.57-1.65-2.36-4.54-2.36-8.65
		c0-4.19,0.73-8.51,2.18-12.95c1.45-4.44,3.49-8.57,6.11-12.4c2.62-3.83,5.73-6.92,9.32-9.26c3.59-2.34,7.52-3.51,11.8-3.51
		c1.37,0,2.86,0.2,4.48,0.6c1.61,0.41,3.1,1.15,4.48,2.24c1.37,1.09,2.3,2.6,2.78,4.54c0.08-0.16,0.18-0.28,0.3-0.36
		c0.12-0.08,0.22-0.16,0.3-0.24c1.13-1.77,2.42-3.27,3.87-4.48s3.06-1.82,4.84-1.82c0.89,0,2.14,0.04,3.75,0.12
		c1.61,0.08,2.78,0.08,3.51,0c-0.4,0.32-0.95,0.97-1.63,1.94c-0.69,0.97-1.31,1.96-1.88,2.96c-0.57,1.01-1.01,1.8-1.33,2.36
		c-2.18,4.2-4.16,8.35-5.93,12.46c-1.78,4.11-3.15,8.07-4.11,11.86c-0.24,0.81-0.4,1.55-0.48,2.24c-0.08,0.69-0.12,1.35-0.12,2
		c0,2.1,0.68,3.15,2.06,3.15c1.29,0,2.9-0.8,4.84-2.42c2.82-2.26,5.3-5.08,7.44-8.47c2.14-3.39,4.01-6.66,5.63-9.8
		c0.32-0.56,0.6-0.85,0.85-0.85c0.48,0,0.73,0.69,0.73,2.06c0,0.65-0.1,1.37-0.3,2.18c-0.2,0.81-0.5,1.57-0.91,2.3
		c-1.13,1.94-2.6,4.32-4.42,7.14c-1.82,2.82-3.85,5.59-6.11,8.29c-2.26,2.7-4.62,4.98-7.08,6.84
		C525.27,138.07,522.83,139,520.41,139z M496.33,128.47c0.24,0.08,0.61,0.12,1.09,0.12c1.53,0,3.19-0.64,4.96-1.94
		c1.77-1.29,3.55-2.96,5.32-5.02c1.77-2.06,3.35-4.13,4.72-6.23c3.55-5.65,6.17-9.88,7.86-12.71c1.69-2.82,2.66-4.44,2.9-4.84
		c-0.4-1.37-1.11-2.38-2.12-3.03c-1.01-0.64-2.2-0.97-3.57-0.97c-1.78,0-3.65,0.48-5.63,1.45c-1.98,0.97-3.65,2.14-5.02,3.51
		c-2.1,2.1-4.09,4.8-5.99,8.11c-1.9,3.31-3.43,6.58-4.6,9.8c-1.17,3.23-1.75,5.93-1.75,8.11
		C494.52,126.86,495.12,128.07,496.33,128.47z"/>
	<path class="st4" d="M572.92,139c-2.74,0-4.62-0.83-5.63-2.48c-1.01-1.65-1.51-3.57-1.51-5.75c0-2.66,0.52-5.87,1.57-9.62
		c1.05-3.75,2.28-7.54,3.69-11.37c1.41-3.83,2.68-7.24,3.81-10.22c0.32-0.73,0.48-1.49,0.48-2.3c0-0.89-0.28-1.53-0.85-1.94
		c-0.57-0.4-1.29-0.6-2.18-0.6c-1.29,0-2.74,0.4-4.36,1.21c-2.5,1.29-4.88,3.35-7.14,6.17c-2.26,2.82-4.07,5.77-5.45,8.83
		c-1.53,3.47-2.9,6.94-4.11,10.41c-1.21,3.47-2.18,6.29-2.9,8.47c-0.48,1.37-0.93,2.78-1.33,4.23c-0.4,1.45-0.81,2.86-1.21,4.24
		h-11.74c1.05-4.03,1.98-7.06,2.78-9.08c1.37-3.55,2.76-7.1,4.17-10.65c1.41-3.55,2.64-6.7,3.69-9.44c0.32-0.81,0.83-2.32,1.51-4.54
		c0.68-2.22,1.33-4.54,1.94-6.96c0.61-2.42,0.91-4.4,0.91-5.93c0-0.89-0.12-1.49-0.36-1.82c0.73,0,1.55-0.02,2.48-0.06
		c0.93-0.04,1.79-0.06,2.6-0.06c1.13,0,2.2,0.04,3.21,0.12c1.01,0.08,1.67,0.28,2,0.61c0.97,0.73,1.45,1.78,1.45,3.15
		c0,0.97-0.18,1.94-0.54,2.9c-0.36,0.97-0.63,1.78-0.79,2.42c1.13-1.05,2.3-2.06,3.51-3.02c1.21-0.97,3.06-2.22,5.57-3.75
		c1.45-0.89,3.27-1.61,5.45-2.18c2.18-0.56,4.15-0.85,5.93-0.85c4.6,0,6.9,2.14,6.9,6.41c0,0.73-0.06,1.53-0.18,2.42
		c-0.12,0.89-0.38,1.86-0.79,2.9c-0.4,1.29-1.05,3.07-1.94,5.32c-0.89,2.26-1.8,4.66-2.72,7.2c-0.93,2.54-1.71,4.94-2.36,7.2
		c-0.65,2.26-0.97,4.07-0.97,5.45c0,1.94,0.73,2.9,2.18,2.9c1.29,0,2.9-0.8,4.84-2.42c1.85-1.53,3.47-3.19,4.84-4.96
		c1.69-2.1,3.25-4.33,4.66-6.71c1.41-2.38,2.64-4.58,3.69-6.59c0.4-0.64,0.68-0.97,0.85-0.97c0.48,0,0.73,0.69,0.73,2.06
		c0,0.65-0.1,1.39-0.3,2.24c-0.2,0.85-0.5,1.63-0.91,2.36c-1.13,1.94-2.46,4.07-3.99,6.41c-1.53,2.34-3.11,4.6-4.72,6.78
		c-1.13,1.53-2.62,3.23-4.48,5.08c-1.86,1.86-3.83,3.45-5.93,4.78C576.88,138.33,574.86,139,572.92,139z"/>
	<path class="st4" d="M597.49,162.59c-2.02,0-4.13-0.3-6.35-0.91c-2.22-0.6-4.07-1.63-5.57-3.08c-1.49-1.45-2.24-3.39-2.24-5.81
		c0-1.69,0.53-3.27,1.57-4.72c1.05-1.45,2.5-2.18,4.36-2.18c1.13,0,2.18,0.3,3.15,0.91c0.97,0.61,1.61,1.35,1.94,2.24
		c-0.16,0.08-0.4,0.32-0.73,0.73c-0.32,0.4-0.53,0.68-0.61,0.85c-0.56,1.13-0.85,2.3-0.85,3.51c0,1.53,0.54,2.76,1.63,3.69
		c1.09,0.93,2.48,1.39,4.17,1.39c2.18,0,4.44-0.81,6.78-2.42c2.58-1.86,4.62-4.26,6.11-7.2c1.49-2.95,2.68-5.59,3.57-7.93l6.9-18.39
		c-1.45,1.78-2.96,3.57-4.54,5.38c-1.57,1.81-2.56,2.92-2.96,3.33c-3.07,3.07-5.81,5-8.23,5.81c-2.42,0.81-4.56,1.21-6.41,1.21
		c-1.94,0-3.57-0.85-4.9-2.54c-1.33-1.69-2-4.15-2-7.38c0-1.61,0.24-3.67,0.73-6.17c0.48-2.5,1.17-5.18,2.06-8.05
		c0.89-2.86,1.92-5.69,3.08-8.47c1.17-2.78,2.44-5.26,3.81-7.44c2.1-3.31,4.44-5.44,7.02-6.41c2.58-0.97,5.85-1.45,9.8-1.45
		c0.32,0,0.48,0.16,0.48,0.48c0,0.32-0.24,0.73-0.73,1.21c-1.13,0.97-2.5,2.66-4.11,5.08c-1.61,2.42-3.17,5.08-4.66,7.99
		c-1.49,2.9-2.72,5.69-3.69,8.35c-0.65,1.86-1.27,4.04-1.88,6.53c-0.6,2.5-0.91,4.68-0.91,6.53c0,1.29,0.18,2.32,0.54,3.08
		c0.36,0.77,0.95,1.15,1.75,1.15c1.29,0,3.07-0.97,5.32-2.9c3.39-2.82,6.45-6.29,9.2-10.41c2.74-4.11,5.08-8.39,7.02-12.83
		c1.13-2.58,2.06-4.78,2.78-6.59c0.73-1.81,1.53-3.29,2.42-4.42c0.89-1.13,2.14-1.96,3.75-2.48c1.61-0.52,3.79-0.79,6.53-0.79h4.96
		c-1.53,0.97-3.07,2.76-4.6,5.38c-1.53,2.62-2.99,5.71-4.36,9.26c-1.05,2.58-2.12,5.41-3.21,8.47c-1.09,3.07-2.2,6.17-3.33,9.32
		c-0.97,2.9-2.02,6.07-3.15,9.5c-1.13,3.43-2.42,6.78-3.87,10.04c-1.45,3.27-3.15,6.11-5.08,8.53c-2.74,3.39-6.09,6.07-10.04,8.05
		C606,161.6,601.84,162.59,597.49,162.59z"/>
	<path class="st4" d="M681.7,138.27c1.77-4.52,3.81-9.54,6.11-15.06c2.3-5.52,4.7-11.19,7.2-17c2.5-5.81,4.98-11.45,7.44-16.94
		c2.46-5.48,4.72-10.51,6.78-15.06c2.06-4.56,3.77-8.33,5.14-11.31c1.37-2.98,2.26-4.84,2.66-5.57c-3.55-0.08-7.18,0.26-10.89,1.03
		c-3.71,0.77-7.18,1.84-10.41,3.21c-3.23,1.37-5.95,2.95-8.17,4.72c-2.22,1.78-3.65,3.63-4.29,5.57c-0.08,0.24-0.24,0.36-0.48,0.36
		c-0.65,0-0.97-0.52-0.97-1.57c0-0.16,0.02-0.34,0.06-0.54c0.04-0.2,0.1-0.42,0.18-0.67c0.73-2.1,1.63-3.95,2.72-5.57
		c1.09-1.61,2.16-2.98,3.21-4.11c2.66-2.74,5.65-4.42,8.95-5.02c3.31-0.6,6.82-0.91,10.53-0.91h20.45
		c-0.16,0.32-0.48,0.97-0.97,1.94c-0.48,0.97-0.73,2.58-0.73,4.84c0,2.34,0.46,5.53,1.39,9.56c0.93,4.03,2.76,9.24,5.5,15.61
		c1.05,2.5,2.02,4.82,2.9,6.96c0.89,2.14,1.65,4.13,2.3,5.99c1.21,3.23,2.1,5.79,2.66,7.68c0.56,1.9,0.95,3.37,1.15,4.42
		c0.2,1.05,0.32,1.96,0.36,2.72c0.04,0.77,0.1,1.59,0.18,2.48c0.97-2.42,2.3-5.61,3.99-9.56c1.69-3.95,3.57-8.31,5.63-13.07
		c2.06-4.76,4.17-9.6,6.35-14.52c2.18-4.92,4.24-9.56,6.17-13.92c1.94-4.36,3.55-8.07,4.84-11.13c0.24-0.4,1.09-0.61,2.54-0.61
		s3.1,0.12,4.96,0.36c1.86,0.24,3.1,0.36,3.75,0.36c-2.26,1.53-4.66,4.48-7.2,8.83c-2.54,4.36-5.3,9.6-8.29,15.73
		c-2.5,5.16-4.98,10.59-7.44,16.28c-2.46,5.69-4.68,11.21-6.66,16.58c-1.98,5.37-3.55,10.22-4.72,14.58
		c-1.17,4.36-1.75,7.74-1.75,10.16c0,0.4,0.02,0.79,0.06,1.15c0.04,0.36,0.1,0.71,0.18,1.03h-7.62c-0.08-2.42-0.36-4.68-0.85-6.78
		c-0.48-2.1-1.25-4.5-2.3-7.2c-1.05-2.7-2.48-6.09-4.29-10.16c-1.82-4.07-4.05-9.26-6.72-15.55c-2.34-5.48-4.05-10.28-5.14-14.4
		s-1.75-7.62-2-10.53c-1.29,2.9-2.8,6.35-4.54,10.35c-1.74,3.99-3.53,8.21-5.38,12.64c-1.86,4.44-3.63,8.88-5.32,13.31
		c-1.69,4.44-3.21,8.59-4.54,12.46s-2.32,7.2-2.96,9.98c-0.65,2.78-0.85,4.74-0.61,5.87H681.7z"/>
	<path class="st4" d="M795.56,139c-2.5,0-4.22-0.97-5.14-2.9c-0.93-1.94-1.39-4.31-1.39-7.14c0-2.58,0.24-5.12,0.73-7.62
		c0.24-1.13,0.5-2.28,0.79-3.45c0.28-1.17,0.62-2.4,1.03-3.69c-1.37,2.5-2.8,4.92-4.3,7.26c-1.49,2.34-3.01,4.4-4.54,6.17
		c-2.58,3.15-5.31,5.77-8.17,7.87c-2.86,2.1-5.71,3.15-8.53,3.15c-2.26,0-4.17-0.83-5.75-2.48c-1.57-1.65-2.36-4.54-2.36-8.65
		c0-4.19,0.73-8.51,2.18-12.95c1.45-4.44,3.49-8.57,6.11-12.4c2.62-3.83,5.73-6.92,9.32-9.26c3.59-2.34,7.52-3.51,11.8-3.51
		c1.37,0,2.86,0.2,4.48,0.6c1.61,0.41,3.1,1.15,4.48,2.24c1.37,1.09,2.3,2.6,2.78,4.54c0.08-0.16,0.18-0.28,0.3-0.36
		c0.12-0.08,0.22-0.16,0.3-0.24c1.13-1.77,2.42-3.27,3.87-4.48c1.45-1.21,3.07-1.82,4.84-1.82c0.89,0,2.14,0.04,3.75,0.12
		c1.61,0.08,2.78,0.08,3.51,0c-0.41,0.32-0.95,0.97-1.63,1.94c-0.69,0.97-1.31,1.96-1.88,2.96c-0.57,1.01-1.01,1.8-1.33,2.36
		c-2.18,4.2-4.16,8.35-5.93,12.46c-1.78,4.11-3.15,8.07-4.11,11.86c-0.24,0.81-0.41,1.55-0.48,2.24c-0.08,0.69-0.12,1.35-0.12,2
		c0,2.1,0.68,3.15,2.06,3.15c1.29,0,2.9-0.8,4.84-2.42c2.82-2.26,5.3-5.08,7.44-8.47c2.14-3.39,4.01-6.66,5.63-9.8
		c0.32-0.56,0.61-0.85,0.85-0.85c0.48,0,0.73,0.69,0.73,2.06c0,0.65-0.1,1.37-0.3,2.18c-0.2,0.81-0.5,1.57-0.91,2.3
		c-1.13,1.94-2.6,4.32-4.42,7.14c-1.81,2.82-3.85,5.59-6.11,8.29c-2.26,2.7-4.62,4.98-7.08,6.84
		C800.42,138.07,797.98,139,795.56,139z M771.48,128.47c0.24,0.08,0.6,0.12,1.09,0.12c1.53,0,3.19-0.64,4.96-1.94
		c1.77-1.29,3.55-2.96,5.32-5.02c1.77-2.06,3.35-4.13,4.72-6.23c3.55-5.65,6.17-9.88,7.87-12.71c1.69-2.82,2.66-4.44,2.9-4.84
		c-0.4-1.37-1.11-2.38-2.12-3.03c-1.01-0.64-2.2-0.97-3.57-0.97c-1.78,0-3.65,0.48-5.63,1.45c-1.98,0.97-3.65,2.14-5.02,3.51
		c-2.1,2.1-4.09,4.8-5.99,8.11c-1.9,3.31-3.43,6.58-4.6,9.8c-1.17,3.23-1.75,5.93-1.75,8.11
		C769.67,126.86,770.27,128.07,771.48,128.47z"/>
	<path class="st4" d="M875.78,139c-2.74,0-4.62-0.83-5.63-2.48c-1.01-1.65-1.51-3.57-1.51-5.75c0-2.34,0.38-5.06,1.15-8.17
		c0.77-3.1,1.73-6.33,2.9-9.68c1.17-3.35,2.36-6.47,3.57-9.38c0.4-0.97,0.79-2.02,1.15-3.15c0.36-1.13,0.54-2.14,0.54-3.03
		c0-1.61-0.73-2.42-2.18-2.42c-0.57,0-1.21,0.1-1.94,0.3c-0.73,0.2-1.57,0.59-2.54,1.15c-1.69,0.81-3.31,1.92-4.84,3.33
		c-1.53,1.41-2.62,2.48-3.27,3.21c-3.07,3.95-5.38,8.23-6.96,12.83c-1.57,4.6-3.21,9.28-4.9,14.04c-0.48,1.37-0.97,2.78-1.45,4.23
		c-0.48,1.45-0.93,2.86-1.33,4.24H836.7c1.37-3.87,2.76-7.72,4.17-11.56c1.41-3.83,2.84-7.64,4.29-11.43
		c0.89-2.18,1.69-4.29,2.42-6.35c0.73-2.06,1.37-3.97,1.94-5.75c0.32-0.89,0.6-1.82,0.85-2.78s0.36-1.85,0.36-2.66
		c0-1.85-0.81-2.78-2.42-2.78c-0.57,0-1.23,0.1-2,0.3c-0.77,0.2-1.67,0.59-2.72,1.15c-1.69,0.81-3.31,1.92-4.84,3.33
		c-1.53,1.41-2.58,2.48-3.15,3.21c-1.05,1.29-2.06,2.72-3.03,4.3c-0.97,1.57-1.81,3.17-2.54,4.78c-1.61,3.47-2.88,6.76-3.81,9.86
		c-0.93,3.11-1.8,5.75-2.6,7.93c-0.48,1.37-0.97,2.78-1.45,4.23c-0.48,1.45-0.93,2.86-1.33,4.24h-11.74c1.13-4.03,2.1-7.06,2.9-9.08
		l7.86-20.09c0.24-0.64,0.62-1.71,1.15-3.21c0.52-1.49,1.07-3.15,1.63-4.96c0.56-1.82,1.05-3.59,1.45-5.32
		c0.4-1.73,0.6-3.17,0.6-4.3c0-0.73-0.08-1.21-0.24-1.45c0.73,0,1.55-0.02,2.48-0.06c0.93-0.04,1.79-0.06,2.6-0.06
		c1.13,0,2.2,0.04,3.21,0.12c1.01,0.08,1.67,0.28,2,0.61c0.89,0.65,1.33,1.61,1.33,2.9c0,1.05-0.2,2.08-0.6,3.08
		c-0.4,1.01-0.69,1.84-0.85,2.48c1.13-1.05,2.38-2.06,3.75-3.02c1.37-0.97,3.35-2.22,5.93-3.75c1.61-0.89,3.51-1.61,5.69-2.18
		c2.18-0.56,4.15-0.85,5.93-0.85c4.27,0,6.41,1.78,6.41,5.32c0,1.45-0.44,3.39-1.33,5.81c1.69-1.69,3.45-3.17,5.26-4.42
		c1.81-1.25,3.73-2.48,5.75-3.69c1.61-0.89,3.51-1.61,5.69-2.18c2.18-0.56,4.15-0.85,5.93-0.85c4.27,0,6.41,1.82,6.41,5.45
		c0,0.81-0.14,1.74-0.42,2.78c-0.28,1.05-0.67,2.22-1.15,3.51c-0.48,1.29-1.17,3.05-2.06,5.26c-0.89,2.22-1.8,4.56-2.72,7.02
		c-0.93,2.46-1.69,4.8-2.3,7.02c-0.61,2.22-0.91,4.05-0.91,5.51c0,0.89,0.14,1.67,0.42,2.36c0.28,0.69,0.83,1.03,1.63,1.03
		c0.56,0,1.37-0.28,2.42-0.85c1.45-0.89,2.9-2.06,4.36-3.51s2.42-2.5,2.9-3.15c1.61-2.1,3.15-4.33,4.6-6.71
		c1.45-2.38,2.7-4.58,3.75-6.59c0.4-0.64,0.68-0.97,0.85-0.97c0.48,0,0.73,0.69,0.73,2.06c0,0.65-0.1,1.39-0.3,2.24
		c-0.2,0.85-0.5,1.63-0.91,2.36c-1.13,1.94-2.46,4.07-3.99,6.41c-1.53,2.34-3.11,4.6-4.72,6.78c-1.13,1.53-2.62,3.23-4.48,5.08
		c-1.86,1.86-3.83,3.45-5.93,4.78C879.73,138.33,877.72,139,875.78,139z"/>
	<path class="st4" d="M924.55,136.58c-3.71,1.94-7.62,2.9-11.74,2.9c-3.47,0-6.7-0.85-9.68-2.54c-2.99-1.69-5-4.4-6.05-8.11
		c-0.48-1.69-0.73-3.47-0.73-5.32c0-3.07,0.54-6.23,1.63-9.5c1.09-3.27,2.52-6.27,4.29-9.01c2.74-4.27,6.21-7.82,10.41-10.65
		c4.19-2.82,8.83-4.24,13.92-4.24c3.79,0,6.73,0.97,8.83,2.9c2.1,1.94,3.15,4.2,3.15,6.78c0,3.07-1.03,5.75-3.08,8.05
		s-4.74,4.05-8.05,5.26c-1.61,0.57-3.33,0.99-5.14,1.27c-1.81,0.28-3.53,0.42-5.14,0.42c-3.31,0-5.85-0.44-7.62-1.33
		c-1.53,3.95-2.3,7.58-2.3,10.89c0,2.99,0.68,5.43,2.06,7.32c1.37,1.9,3.55,2.84,6.53,2.84c2.5,0,4.98-0.68,7.44-2.06
		c2.46-1.37,4.76-3.07,6.9-5.08c2.14-2.02,3.93-3.95,5.38-5.81c1.13-1.37,2.1-2.66,2.9-3.87c0.8-1.21,1.65-2.6,2.54-4.17
		c0.89-1.57,1.94-3.53,3.15-5.87c0.32-0.56,0.61-0.85,0.85-0.85c0.48,0,0.73,0.65,0.73,1.94c0,0.73-0.1,1.51-0.3,2.36
		c-0.2,0.85-0.54,1.71-1.03,2.6c-1.13,2.02-2.48,4.22-4.05,6.59c-1.57,2.38-3.17,4.66-4.78,6.84c-1.45,1.94-3.11,3.71-4.96,5.32
		C928.74,134.08,926.72,135.45,924.55,136.58z M913.53,110.8c0.4,0.24,0.85,0.4,1.33,0.48c0.48,0.08,0.97,0.12,1.45,0.12
		c1.61,0,3.23-0.38,4.84-1.15c1.61-0.77,2.98-1.55,4.11-2.36c1.85-1.29,3.43-2.82,4.72-4.6c1.29-1.77,2.02-3.79,2.18-6.05
		c0.08-0.97-0.14-1.79-0.67-2.48c-0.53-0.68-1.43-1.03-2.72-1.03c-0.65,0-1.45,0.12-2.42,0.36c-1.29,0.32-2.58,0.93-3.87,1.82
		c-1.29,0.89-2.54,1.94-3.75,3.15c-0.4,0.4-1.11,1.19-2.12,2.36c-1.01,1.17-1.96,2.46-2.84,3.87c-0.89,1.41-1.33,2.64-1.33,3.69
		C912.45,109.88,912.81,110.48,913.53,110.8z"/>
</g>
</svg>
